<?xml version="1.0" encoding="UTF-8"?>
<!DOCTYPE svg PUBLIC "-//W3C//DTD SVG 1.1//EN" "http://www.w3.org/Graphics/SVG/1.1/DTD/svg11.dtd">
<svg xmlns="http://www.w3.org/2000/svg" version="1.1" width="1080px" height="1080px" style="shape-rendering:geometricPrecision; text-rendering:geometricPrecision; image-rendering:optimizeQuality; fill-rule:evenodd; clip-rule:evenodd" xmlns:xlink="http://www.w3.org/1999/xlink">
<g><path style="opacity:0.898" fill="#540186" d="M 200.5,355.5 C 212.828,367.661 225.328,379.661 238,391.5C 238.667,392.5 238.667,393.5 238,394.5C 190.167,442.333 142.333,490.167 94.5,538C 142,585.5 189.5,633 237,680.5C 237.667,681.167 237.667,681.833 237,682.5C 224.959,694.875 212.626,706.875 200,718.5C 139.167,659 79,598.833 19.5,538C 79.6615,477.005 139.995,416.172 200.5,355.5 Z"/></g>
<g><path style="opacity:0.889" fill="#540186" d="M 878.5,355.5 C 939.146,415.479 999.479,475.812 1059.5,536.5C 999.167,597.5 938.5,658.167 877.5,718.5C 865.181,706.681 853.014,694.681 841,682.5C 840.333,681.833 840.333,681.167 841,680.5C 889.014,632.653 936.847,584.653 984.5,536.5C 937.014,488.514 889.347,440.68 841.5,393C 854.035,380.632 866.369,368.132 878.5,355.5 Z"/></g>
<g><path style="opacity:0.971" fill="#8b04df" d="M 592.5,360.5 C 593.043,360.56 593.376,360.893 593.5,361.5C 485.097,487.03 370.93,607.696 251,723.5C 250.333,722.833 250.333,722.167 251,721.5C 270.833,699 290.667,676.5 310.5,654C 278.725,621.908 263.391,583.075 264.5,537.5C 268.624,475.698 298.29,431.198 353.5,404C 393.769,388.335 434.769,386.335 476.5,398C 494.833,404.082 511.666,412.915 527,424.5C 549.033,403.299 570.866,381.966 592.5,360.5 Z M 407.5,450.5 C 434.118,448.152 458.118,454.818 479.5,470.5C 435.344,512.817 393.511,557.151 354,603.5C 342.667,589.517 336.001,573.517 334,555.5C 329.52,515.977 343.354,484.811 375.5,462C 385.619,456.241 396.285,452.408 407.5,450.5 Z"/></g>
<g><path style="opacity:0.983" fill="#8b04df" d="M 663.5,394.5 C 683.169,394.333 702.836,394.5 722.5,395C 723.416,395.374 724.25,395.874 725,396.5C 759.197,487.423 793.197,578.423 827,669.5C 828.183,673.274 827.349,676.441 824.5,679C 801.79,679.822 779.124,679.656 756.5,678.5C 755.667,677.5 754.833,676.5 754,675.5C 747.526,657.911 741.36,640.244 735.5,622.5C 705.165,622.333 674.832,622.5 644.5,623C 638.338,640.15 632.172,657.317 626,674.5C 625.215,676.286 624.049,677.786 622.5,679C 600.5,679.667 578.5,679.667 556.5,679C 553.125,675.238 552.625,671.072 555,666.5C 576.863,608.577 598.53,550.577 620,492.5C 620.936,488.793 622.769,485.626 625.5,483C 630.428,481.357 633.928,482.857 636,487.5C 644.535,512.771 652.868,538.104 661,563.5C 661.926,570.058 660.759,576.224 657.5,582C 678.841,582.833 700.174,582.666 721.5,581.5C 701.436,522.807 681.269,464.14 661,405.5C 659.812,401.259 660.645,397.592 663.5,394.5 Z"/></g>
<g><path style="opacity:0.98" fill="#8b04df" d="M 471.5,519.5 C 495.833,519.5 520.167,519.5 544.5,519.5C 544.667,562.168 544.5,604.835 544,647.5C 496.713,687.138 442.546,701.305 381.5,690C 363.447,686.095 346.613,679.262 331,669.5C 330.333,668.833 330.333,668.167 331,667.5C 345.167,652.667 359.333,637.833 373.5,623C 383.105,627.091 393.105,630.424 403.5,633C 431.223,637.622 456.89,632.455 480.5,617.5C 481.499,603.516 481.833,589.516 481.5,575.5C 460.497,575.667 439.497,575.5 418.5,575C 436.371,556.631 454.037,538.131 471.5,519.5 Z"/></g>
</svg>
